<svg xmlns="http://www.w3.org/2000/svg" viewBox="0 0 120 40" role="img" aria-labelledby="humoTitle">
  <title id="humoTitle">HUMO</title>
  <defs>
    <linearGradient id="humoBg" x1="0" y1="0" x2="1" y2="1">
      <stop offset="0%" stop-color="#f97316"/>
      <stop offset="100%" stop-color="#7c3aed"/>
    </linearGradient>
  </defs>
  <rect x="1.5" y="1.5" width="117" height="37" rx="9" fill="url(#humoBg)" stroke="#ffffff" stroke-opacity="0.18"/>
  <path d="M14 12h5.8v6h5.1v-6h5.8v17.8h-5.8v-6.4h-5.1v6.4H14z" fill="#fff"/>
  <path d="M33.5 12h5.9v9.8c0 1.8.9 2.9 2.8 2.9s2.8-1.1 2.8-2.9V12h5.9v10c0 5-3.6 8.4-8.7 8.4s-8.7-3.4-8.7-8.4z" fill="#fff"/>
  <path d="M53.7 12h6.3l3.2 5.5 3.2-5.5h6.3v17.8h-5.8v-9l-3.7 6.1-3.7-6.1v9h-5.8z" fill="#fff"/>
  <path d="M82.9 11.6c5.5 0 9.6 3.9 9.6 9.3s-4.1 9.3-9.6 9.3-9.6-3.9-9.6-9.3 4.1-9.3 9.6-9.3zm0 5.1c-2.1 0-3.7 1.7-3.7 4.2 0 2.4 1.6 4.2 3.7 4.2s3.7-1.8 3.7-4.2c0-2.5-1.6-4.2-3.7-4.2z" fill="#fff"/>
</svg>
