<svg xmlns="http://www.w3.org/2000/svg" viewBox="0 0 120 40" role="img" aria-labelledby="uzcardTitle">
  <title id="uzcardTitle">UZCARD</title>
  <defs>
    <linearGradient id="uzcardBg" x1="0" y1="0" x2="1" y2="1">
      <stop offset="0%" stop-color="#0f6ad9"/>
      <stop offset="100%" stop-color="#0ea5a3"/>
    </linearGradient>
  </defs>
  <rect x="1.5" y="1.5" width="117" height="37" rx="9" fill="url(#uzcardBg)" stroke="#ffffff" stroke-opacity="0.18"/>
  <path d="M19 12h6.1l3.2 5.4 3.2-5.4h6.1l-6.3 9.2v6.8h-6V21.2z" fill="#fff"/>
  <path d="M40.2 12h6v9.8c0 1.7.9 2.8 2.8 2.8s2.8-1.1 2.8-2.8V12h6v10c0 5-3.6 8.4-8.8 8.4-5.3 0-8.8-3.4-8.8-8.4z" fill="#fff"/>
  <path d="M61.4 12h18.6v4.6L68.5 25h11.8V29.8H60.9v-4.6L72.3 16.8H61.4z" fill="#fff"/>
  <circle cx="95" cy="20" r="7.5" fill="#fff" fill-opacity="0.22"/>
  <circle cx="101.5" cy="20" r="7.5" fill="#fff" fill-opacity="0.4"/>
</svg>
